<svg xmlns="http://www.w3.org/2000/svg" xmlns:xlink="http://www.w3.org/1999/xlink" width="323" zoomAndPan="magnify" viewBox="0 0 242.25 148.499996" height="198" preserveAspectRatio="xMidYMid meet" version="1.0"><defs><g/><clipPath id="0d106fec9c"><path d="M 87.835938 0 L 235.179688 0 L 235.179688 147.34375 L 87.835938 147.34375 Z M 87.835938 0 " clip-rule="nonzero"/></clipPath><clipPath id="d69b70d5f7"><path d="M 161.507812 0 C 120.820312 0 87.835938 32.984375 87.835938 73.671875 C 87.835938 114.359375 120.820312 147.34375 161.507812 147.34375 C 202.199219 147.34375 235.179688 114.359375 235.179688 73.671875 C 235.179688 32.984375 202.199219 0 161.507812 0 Z M 161.507812 0 " clip-rule="nonzero"/></clipPath><clipPath id="9766712a69"><path d="M 0.835938 0 L 148.179688 0 L 148.179688 147.34375 L 0.835938 147.34375 Z M 0.835938 0 " clip-rule="nonzero"/></clipPath><clipPath id="48c022a5a1"><path d="M 74.507812 0 C 33.820312 0 0.835938 32.984375 0.835938 73.671875 C 0.835938 114.359375 33.820312 147.34375 74.507812 147.34375 C 115.199219 147.34375 148.179688 114.359375 148.179688 73.671875 C 148.179688 32.984375 115.199219 0 74.507812 0 Z M 74.507812 0 " clip-rule="nonzero"/></clipPath><clipPath id="9f87313ec3"><rect x="0" width="149" y="0" height="148"/></clipPath><clipPath id="bd2a354c84"><path d="M 5.980469 57.683594 L 235.179688 57.683594 L 235.179688 89.660156 L 5.980469 89.660156 Z M 5.980469 57.683594 " clip-rule="nonzero"/></clipPath><clipPath id="260a98de8d"><path d="M 0.980469 0.683594 L 230.179688 0.683594 L 230.179688 32.660156 L 0.980469 32.660156 Z M 0.980469 0.683594 " clip-rule="nonzero"/></clipPath><clipPath id="6929dddab2"><rect x="0" width="231" y="0" height="33"/></clipPath><clipPath id="e56da4aa0d"><rect x="0" width="231" y="0" height="23"/></clipPath></defs><path fill="#000000" d="M 35.175781 21.339844 C 33.429688 22.785156 31.824219 24.339844 30.351562 26 C 31.058594 25.269531 31.789062 24.539062 32.546875 23.804688 C 33.210938 23.15625 34.089844 22.335938 35.175781 21.339844 M 28.066406 22.714844 C 26.878906 23.773438 25.828125 24.78125 24.910156 25.738281 C 23.992188 26.691406 23.171875 27.617188 22.449219 28.503906 C 24.085938 26.65625 25.957031 24.726562 28.066406 22.714844 M 151.152344 57.152344 L 151.125 57.464844 L 151.117188 57.777344 L 151.132812 58.09375 L 151.179688 58.417969 L 151.253906 58.742188 L 151.359375 59.074219 L 151.503906 59.414062 L 151.6875 59.761719 L 151.914062 60.117188 L 152.183594 60.484375 L 152.503906 60.863281 L 152.871094 61.25 C 152.382812 60.03125 151.8125 58.667969 151.152344 57.152344 M 82.367188 0.0507812 L 81.378906 0.0585938 C 60.738281 0.953125 42.980469 8.492188 28.105469 22.675781 C 43.730469 8.988281 61.261719 1.941406 80.707031 1.535156 C 90.835938 1.605469 99.460938 3.136719 106.589844 6.121094 C 117.242188 10.386719 125.761719 15.515625 132.140625 21.503906 C 136.78125 25.855469 140.242188 29.714844 142.515625 33.089844 C 136.800781 25.046875 128.164062 18.101562 116.601562 12.253906 C 104.03125 6.480469 91.757812 3.59375 79.78125 3.59375 C 63.589844 3.277344 48.730469 9.183594 35.203125 21.316406 C 49.167969 10.175781 64.78125 5.234375 82.039062 6.492188 C 102.101562 8.308594 118.9375 15.488281 132.546875 28.03125 C 139.960938 35.03125 146.164062 44.738281 151.15625 57.148438 C 152.117188 53.996094 152.390625 52.101562 151.972656 51.464844 C 153.957031 57.402344 155.132812 63.566406 155.503906 69.957031 C 156.84375 88.023438 151.191406 105.050781 138.539062 121.035156 C 159.296875 97.601562 163.5 71.480469 151.148438 42.671875 C 144.421875 28.921875 135.59375 18.871094 124.65625 12.519531 C 110.980469 4.335938 96.882812 0.179688 82.367188 0.0507812 M 138.515625 121.0625 L 137.992188 121.625 C 136.417969 123.324219 134.730469 125.046875 132.929688 126.785156 L 134.152344 125.808594 L 134.417969 125.585938 C 134.492188 125.53125 134.800781 125.242188 135.339844 124.707031 C 135.792969 124.25 136.285156 123.714844 136.820312 123.101562 L 137.648438 122.132812 L 138.515625 121.0625 M 30.324219 26.027344 L 29.042969 27.378906 C 14.4375 43.738281 7.929688 62.109375 9.515625 82.484375 C 7.167969 73.722656 7.292969 64.5625 9.886719 54.996094 C 12.390625 44.875 16.570312 36.054688 22.425781 28.535156 C 12.730469 39.65625 7.410156 53.894531 6.464844 71.253906 C 6.4375 74.386719 6.960938 78.308594 8.035156 83.023438 C 11.816406 96.441406 14.027344 103.566406 14.671875 104.390625 C 18.84375 113.882812 23.753906 121.253906 29.40625 126.507812 C 36.625 133.257812 44.574219 138.324219 53.253906 141.707031 C 62.015625 145.34375 70.3125 147.089844 78.152344 146.945312 C 89.367188 146.703125 99.910156 145.03125 109.777344 141.929688 C 116.941406 139.375 124.65625 134.332031 132.914062 126.800781 C 124.367188 133.609375 117.019531 137.964844 110.867188 139.867188 C 99.355469 143.03125 88.726562 144.535156 78.984375 144.382812 C 72.875 144.808594 64.175781 142.589844 52.882812 137.734375 C 44.632812 134.125 37.824219 129.675781 32.449219 124.375 C 28.152344 120.070312 24.890625 116.050781 22.65625 112.320312 C 29.308594 120.300781 38.957031 127.917969 51.609375 135.167969 C 57.6875 138.554688 63.738281 140.980469 69.765625 142.449219 C 71.316406 142.800781 72.195312 142.929688 72.394531 142.832031 C 72.503906 142.796875 72.496094 142.71875 72.363281 142.601562 C 72.628906 142.789062 73.027344 142.613281 73.558594 142.082031 C 74.007812 141.539062 74.300781 141.003906 74.441406 140.480469 C 66.457031 140.292969 54.160156 134.847656 37.546875 124.148438 C 28.066406 117.074219 20.929688 108.773438 16.140625 99.25 C 11.605469 88.40625 10.628906 75.535156 13.207031 60.636719 C 15.101562 49.074219 20.808594 37.539062 30.324219 26.027344 " fill-opacity="1" fill-rule="nonzero"/><g clip-path="url(#0d106fec9c)"><g clip-path="url(#d69b70d5f7)"><g transform="matrix(1, 0, 0, 1, 87, 0)"><g clip-path="url(#9f87313ec3)"><g clip-path="url(#9766712a69)"><g clip-path="url(#48c022a5a1)"><path fill="#000000" d="M 0.835938 0 L 148.179688 0 L 148.179688 147.34375 L 0.835938 147.34375 Z M 0.835938 0 " fill-opacity="1" fill-rule="nonzero"/></g></g></g></g></g></g><g clip-path="url(#bd2a354c84)"><g transform="matrix(1, 0, 0, 1, 5, 57)"><g clip-path="url(#6929dddab2)"><g clip-path="url(#260a98de8d)"><path fill="#ffffff" d="M 0.980469 0.683594 L 230.1875 0.683594 L 230.1875 32.660156 L 0.980469 32.660156 Z M 0.980469 0.683594 " fill-opacity="1" fill-rule="nonzero"/></g></g></g></g><g transform="matrix(1, 0, 0, 1, 5, 62)"><g clip-path="url(#e56da4aa0d)"><g fill="#000000" fill-opacity="1"><g transform="translate(1.117981, 18.957627)"><g><path d="M 15.609375 -14.859375 L 15.609375 -11.890625 L 3.71875 -11.890625 L 3.71875 -8.921875 L 12.640625 -8.921875 C 13.179688 -8.921875 13.675781 -8.785156 14.125 -8.515625 C 14.582031 -8.253906 14.941406 -7.894531 15.203125 -7.4375 C 15.472656 -6.988281 15.609375 -6.488281 15.609375 -5.9375 L 15.609375 -2.96875 C 15.609375 -2.425781 15.472656 -1.925781 15.203125 -1.46875 C 14.941406 -1.019531 14.582031 -0.660156 14.125 -0.390625 C 13.675781 -0.128906 13.179688 0 12.640625 0 L 0.75 0 L 0.75 -2.96875 L 12.640625 -2.96875 L 12.640625 -5.9375 L 3.71875 -5.9375 C 3.164062 -5.9375 2.664062 -6.070312 2.21875 -6.34375 C 1.769531 -6.613281 1.410156 -6.972656 1.140625 -7.421875 C 0.878906 -7.867188 0.75 -8.367188 0.75 -8.921875 L 0.75 -11.890625 C 0.75 -12.429688 0.878906 -12.925781 1.140625 -13.375 C 1.410156 -13.832031 1.769531 -14.191406 2.21875 -14.453125 C 2.664062 -14.722656 3.164062 -14.859375 3.71875 -14.859375 Z M 15.609375 -14.859375 "/></g></g></g><g fill="#000000" fill-opacity="1"><g transform="translate(17.468443, 18.957627)"><g><path d="M 12.640625 -8.921875 L 12.640625 -14.859375 L 15.609375 -14.859375 L 15.609375 0 L 12.640625 0 L 12.640625 -5.9375 L 3.71875 -5.9375 L 3.71875 0 L 0.75 0 L 0.75 -14.859375 L 3.71875 -14.859375 L 3.71875 -8.921875 Z M 12.640625 -8.921875 "/></g></g></g><g fill="#000000" fill-opacity="1"><g transform="translate(33.818905, 18.957627)"><g><path d="M 3.71875 -14.859375 L 12.640625 -14.859375 C 13.179688 -14.859375 13.675781 -14.722656 14.125 -14.453125 C 14.582031 -14.191406 14.941406 -13.832031 15.203125 -13.375 C 15.472656 -12.925781 15.609375 -12.429688 15.609375 -11.890625 L 15.609375 0 L 12.640625 0 L 12.640625 -5.9375 L 3.71875 -5.9375 L 3.71875 0 L 0.75 0 L 0.75 -11.890625 C 0.75 -12.429688 0.878906 -12.925781 1.140625 -13.375 C 1.410156 -13.832031 1.769531 -14.191406 2.21875 -14.453125 C 2.664062 -14.722656 3.164062 -14.859375 3.71875 -14.859375 Z M 3.71875 -11.890625 L 3.71875 -8.921875 L 12.640625 -8.921875 L 12.640625 -11.890625 Z M 3.71875 -11.890625 "/></g></g></g><g fill="#000000" fill-opacity="1"><g transform="translate(50.169367, 18.957627)"><g><path d="M 12.640625 -14.859375 C 13.179688 -14.859375 13.675781 -14.722656 14.125 -14.453125 C 14.582031 -14.191406 14.941406 -13.832031 15.203125 -13.375 C 15.472656 -12.925781 15.609375 -12.429688 15.609375 -11.890625 L 15.609375 -8.921875 C 15.609375 -8.367188 15.472656 -7.867188 15.203125 -7.421875 C 14.941406 -6.972656 14.582031 -6.613281 14.125 -6.34375 C 13.675781 -6.070312 13.179688 -5.9375 12.640625 -5.9375 L 3.71875 -5.9375 L 3.71875 0 L 0.75 0 L 0.75 -14.859375 Z M 3.71875 -8.921875 L 12.640625 -8.921875 L 12.640625 -11.890625 L 3.71875 -11.890625 Z M 3.71875 -8.921875 "/></g></g></g><g fill="#000000" fill-opacity="1"><g transform="translate(66.519829, 18.957627)"><g><path d="M 15.609375 -14.859375 L 15.609375 -11.890625 L 3.71875 -11.890625 L 3.71875 -8.921875 L 15.609375 -8.921875 L 15.609375 -5.9375 L 3.71875 -5.9375 L 3.71875 -2.96875 L 15.609375 -2.96875 L 15.609375 0 L 3.71875 0 C 3.164062 0 2.664062 -0.128906 2.21875 -0.390625 C 1.769531 -0.660156 1.410156 -1.019531 1.140625 -1.46875 C 0.878906 -1.925781 0.75 -2.425781 0.75 -2.96875 L 0.75 -11.890625 C 0.75 -12.429688 0.878906 -12.925781 1.140625 -13.375 C 1.410156 -13.832031 1.769531 -14.191406 2.21875 -14.453125 C 2.664062 -14.722656 3.164062 -14.859375 3.71875 -14.859375 Z M 15.609375 -14.859375 "/></g></g></g><g fill="#000000" fill-opacity="1"><g transform="translate(82.870291, 18.957627)"><g/></g></g><g fill="#000000" fill-opacity="1"><g transform="translate(91.045526, 18.957627)"><g><path d="M 12.640625 -8.921875 L 12.640625 -14.859375 L 15.609375 -14.859375 L 15.609375 -2.96875 C 15.609375 -2.425781 15.472656 -1.925781 15.203125 -1.46875 C 14.941406 -1.019531 14.582031 -0.660156 14.125 -0.390625 C 13.675781 -0.128906 13.179688 0 12.640625 0 L 0.75 0 L 0.75 -2.96875 L 12.640625 -2.96875 L 12.640625 -5.9375 L 3.71875 -5.9375 C 3.164062 -5.9375 2.664062 -6.070312 2.21875 -6.34375 C 1.769531 -6.613281 1.410156 -6.972656 1.140625 -7.421875 C 0.878906 -7.867188 0.75 -8.367188 0.75 -8.921875 L 0.75 -14.859375 L 3.71875 -14.859375 L 3.71875 -8.921875 Z M 12.640625 -8.921875 "/></g></g></g><g fill="#000000" fill-opacity="1"><g transform="translate(107.395988, 18.957627)"><g><path d="M 12.640625 0 L 3.71875 0 C 3.164062 0 2.664062 -0.128906 2.21875 -0.390625 C 1.769531 -0.660156 1.410156 -1.019531 1.140625 -1.46875 C 0.878906 -1.925781 0.75 -2.425781 0.75 -2.96875 L 0.75 -11.890625 C 0.75 -12.429688 0.878906 -12.925781 1.140625 -13.375 C 1.410156 -13.832031 1.769531 -14.191406 2.21875 -14.453125 C 2.664062 -14.722656 3.164062 -14.859375 3.71875 -14.859375 L 12.640625 -14.859375 C 13.179688 -14.859375 13.675781 -14.722656 14.125 -14.453125 C 14.582031 -14.191406 14.941406 -13.832031 15.203125 -13.375 C 15.472656 -12.925781 15.609375 -12.429688 15.609375 -11.890625 L 15.609375 -2.96875 C 15.609375 -2.4375 15.472656 -1.941406 15.203125 -1.484375 C 14.941406 -1.035156 14.585938 -0.675781 14.140625 -0.40625 C 13.691406 -0.132812 13.191406 0 12.640625 0 Z M 3.71875 -11.890625 L 3.71875 -2.96875 L 12.640625 -2.96875 L 12.640625 -11.890625 Z M 3.71875 -11.890625 "/></g></g></g><g fill="#000000" fill-opacity="1"><g transform="translate(123.74645, 18.957627)"><g><path d="M 12.640625 0 L 3.71875 0 C 3.164062 0 2.664062 -0.128906 2.21875 -0.390625 C 1.769531 -0.660156 1.410156 -1.019531 1.140625 -1.46875 C 0.878906 -1.925781 0.75 -2.425781 0.75 -2.96875 L 0.75 -14.859375 L 3.71875 -14.859375 L 3.71875 -2.96875 L 12.640625 -2.96875 L 12.640625 -14.859375 L 15.609375 -14.859375 L 15.609375 -2.96875 C 15.609375 -2.425781 15.472656 -1.925781 15.203125 -1.46875 C 14.941406 -1.019531 14.582031 -0.660156 14.125 -0.390625 C 13.675781 -0.128906 13.179688 0 12.640625 0 Z M 12.640625 0 "/></g></g></g><g fill="#000000" fill-opacity="1"><g transform="translate(140.096912, 18.957627)"><g><path d="M 15.609375 -11.890625 L 15.609375 -8.921875 C 15.609375 -8.367188 15.472656 -7.867188 15.203125 -7.421875 C 14.941406 -6.972656 14.582031 -6.613281 14.125 -6.34375 C 13.675781 -6.070312 13.179688 -5.9375 12.640625 -5.9375 L 9.65625 -5.9375 L 12.640625 -2.96875 L 15.609375 -2.96875 L 15.609375 0 L 12.03125 0 C 11.613281 0 11.257812 -0.148438 10.96875 -0.453125 L 5.46875 -5.9375 L 3.71875 -5.9375 L 3.71875 0 L 0.75 0 L 0.75 -14.859375 L 12.640625 -14.859375 C 13.179688 -14.859375 13.675781 -14.722656 14.125 -14.453125 C 14.582031 -14.191406 14.941406 -13.832031 15.203125 -13.375 C 15.472656 -12.925781 15.609375 -12.429688 15.609375 -11.890625 Z M 12.640625 -11.890625 L 3.71875 -11.890625 L 3.71875 -8.921875 L 12.640625 -8.921875 Z M 12.640625 -11.890625 "/></g></g></g><g fill="#000000" fill-opacity="1"><g transform="translate(156.447374, 18.957627)"><g/></g></g><g fill="#000000" fill-opacity="1"><g transform="translate(164.62262, 18.957627)"><g><path d="M 12.640625 0 L 0.75 0 L 0.75 -14.859375 L 12.640625 -14.859375 C 13.179688 -14.859375 13.675781 -14.722656 14.125 -14.453125 C 14.582031 -14.191406 14.941406 -13.832031 15.203125 -13.375 C 15.472656 -12.925781 15.609375 -12.429688 15.609375 -11.890625 L 15.609375 -2.96875 C 15.609375 -2.425781 15.472656 -1.925781 15.203125 -1.46875 C 14.941406 -1.019531 14.582031 -0.660156 14.125 -0.390625 C 13.675781 -0.128906 13.179688 0 12.640625 0 Z M 3.71875 -11.890625 L 3.71875 -2.96875 L 12.640625 -2.96875 L 12.640625 -11.890625 Z M 3.71875 -11.890625 "/></g></g></g><g fill="#000000" fill-opacity="1"><g transform="translate(180.973072, 18.957627)"><g><path d="M 3.71875 -14.859375 L 12.640625 -14.859375 C 13.179688 -14.859375 13.675781 -14.722656 14.125 -14.453125 C 14.582031 -14.191406 14.941406 -13.832031 15.203125 -13.375 C 15.472656 -12.925781 15.609375 -12.429688 15.609375 -11.890625 L 15.609375 0 L 12.640625 0 L 12.640625 -5.9375 L 3.71875 -5.9375 L 3.71875 0 L 0.75 0 L 0.75 -11.890625 C 0.75 -12.429688 0.878906 -12.925781 1.140625 -13.375 C 1.410156 -13.832031 1.769531 -14.191406 2.21875 -14.453125 C 2.664062 -14.722656 3.164062 -14.859375 3.71875 -14.859375 Z M 3.71875 -11.890625 L 3.71875 -8.921875 L 12.640625 -8.921875 L 12.640625 -11.890625 Z M 3.71875 -11.890625 "/></g></g></g><g fill="#000000" fill-opacity="1"><g transform="translate(197.323525, 18.957627)"><g><path d="M 12.640625 -8.921875 L 12.640625 -14.859375 L 15.609375 -14.859375 L 15.609375 -2.96875 C 15.609375 -2.425781 15.472656 -1.925781 15.203125 -1.46875 C 14.941406 -1.019531 14.582031 -0.660156 14.125 -0.390625 C 13.675781 -0.128906 13.179688 0 12.640625 0 L 0.75 0 L 0.75 -2.96875 L 12.640625 -2.96875 L 12.640625 -5.9375 L 3.71875 -5.9375 C 3.164062 -5.9375 2.664062 -6.070312 2.21875 -6.34375 C 1.769531 -6.613281 1.410156 -6.972656 1.140625 -7.421875 C 0.878906 -7.867188 0.75 -8.367188 0.75 -8.921875 L 0.75 -14.859375 L 3.71875 -14.859375 L 3.71875 -8.921875 Z M 12.640625 -8.921875 "/></g></g></g><g fill="#000000" fill-opacity="1"><g transform="translate(213.673996, 18.957627)"><g><path d="M 15.609375 -14.859375 L 15.609375 -11.890625 L 3.71875 -11.890625 L 3.71875 -8.921875 L 12.640625 -8.921875 C 13.179688 -8.921875 13.675781 -8.785156 14.125 -8.515625 C 14.582031 -8.253906 14.941406 -7.894531 15.203125 -7.4375 C 15.472656 -6.988281 15.609375 -6.488281 15.609375 -5.9375 L 15.609375 -2.96875 C 15.609375 -2.425781 15.472656 -1.925781 15.203125 -1.46875 C 14.941406 -1.019531 14.582031 -0.660156 14.125 -0.390625 C 13.675781 -0.128906 13.179688 0 12.640625 0 L 0.75 0 L 0.75 -2.96875 L 12.640625 -2.96875 L 12.640625 -5.9375 L 3.71875 -5.9375 C 3.164062 -5.9375 2.664062 -6.070312 2.21875 -6.34375 C 1.769531 -6.613281 1.410156 -6.972656 1.140625 -7.421875 C 0.878906 -7.867188 0.75 -8.367188 0.75 -8.921875 L 0.75 -11.890625 C 0.75 -12.429688 0.878906 -12.925781 1.140625 -13.375 C 1.410156 -13.832031 1.769531 -14.191406 2.21875 -14.453125 C 2.664062 -14.722656 3.164062 -14.859375 3.71875 -14.859375 Z M 15.609375 -14.859375 "/></g></g></g></g></g></svg>