<svg xmlns="http://www.w3.org/2000/svg" xmlns:xlink="http://www.w3.org/1999/xlink" width="274" zoomAndPan="magnify" viewBox="0 0 205.5 148.499996" height="198" preserveAspectRatio="xMidYMid meet" version="1.0"><defs><clipPath id="b7fa61847d"><path d="M 0.09375 0 L 153 0 L 153 147 L 0.09375 147 Z M 0.09375 0 " clip-rule="nonzero"/></clipPath><clipPath id="fefbc4ca18"><path d="M 57.425781 0 L 204.769531 0 L 204.769531 147.34375 L 57.425781 147.34375 Z M 57.425781 0 " clip-rule="nonzero"/></clipPath><clipPath id="d880fcbdd9"><path d="M 131.097656 0 C 90.410156 0 57.425781 32.984375 57.425781 73.671875 C 57.425781 114.359375 90.410156 147.34375 131.097656 147.34375 C 171.785156 147.34375 204.769531 114.359375 204.769531 73.671875 C 204.769531 32.984375 171.785156 0 131.097656 0 Z M 131.097656 0 " clip-rule="nonzero"/></clipPath><clipPath id="56a94c4aac"><path d="M 0.425781 0 L 147.769531 0 L 147.769531 147.34375 L 0.425781 147.34375 Z M 0.425781 0 " clip-rule="nonzero"/></clipPath><clipPath id="93c4c2afc6"><path d="M 74.097656 0 C 33.410156 0 0.425781 32.984375 0.425781 73.671875 C 0.425781 114.359375 33.410156 147.34375 74.097656 147.34375 C 114.785156 147.34375 147.769531 114.359375 147.769531 73.671875 C 147.769531 32.984375 114.785156 0 74.097656 0 Z M 74.097656 0 " clip-rule="nonzero"/></clipPath><clipPath id="6a3b10559a"><rect x="0" width="148" y="0" height="148"/></clipPath></defs><g clip-path="url(#b7fa61847d)"><path fill="#000000" d="M 29.292969 21.339844 C 27.546875 22.785156 25.9375 24.339844 24.46875 26 C 25.175781 25.269531 25.90625 24.539062 26.664062 23.804688 C 27.328125 23.15625 28.203125 22.335938 29.292969 21.339844 M 22.179688 22.714844 C 20.996094 23.773438 19.945312 24.78125 19.027344 25.738281 C 18.109375 26.691406 17.289062 27.617188 16.566406 28.503906 C 18.203125 26.65625 20.074219 24.726562 22.179688 22.714844 M 145.269531 57.152344 L 145.242188 57.464844 L 145.234375 57.777344 L 145.25 58.09375 L 145.292969 58.417969 L 145.367188 58.742188 L 145.476562 59.074219 L 145.621094 59.414062 L 145.804688 59.761719 L 146.03125 60.117188 L 146.300781 60.484375 L 146.617188 60.863281 L 146.988281 61.25 C 146.5 60.03125 145.925781 58.667969 145.269531 57.152344 M 76.480469 0.0507812 L 75.496094 0.0585938 C 54.855469 0.953125 37.097656 8.492188 22.222656 22.675781 C 37.84375 8.988281 55.378906 1.941406 74.820312 1.535156 C 84.953125 1.605469 93.578125 3.136719 100.703125 6.121094 C 111.359375 10.386719 119.878906 15.515625 126.257812 21.503906 C 130.898438 25.855469 134.355469 29.714844 136.628906 33.089844 C 130.917969 25.046875 122.28125 18.101562 110.71875 12.253906 C 98.144531 6.480469 85.875 3.59375 73.898438 3.59375 C 57.707031 3.277344 42.84375 9.183594 29.320312 21.316406 C 43.285156 10.175781 58.898438 5.234375 76.15625 6.492188 C 96.21875 8.308594 113.050781 15.488281 126.660156 28.03125 C 134.078125 35.03125 140.28125 44.738281 145.269531 57.148438 C 146.234375 53.996094 146.507812 52.101562 146.089844 51.464844 C 148.074219 57.402344 149.25 63.566406 149.621094 69.957031 C 150.960938 88.023438 145.304688 105.050781 132.65625 121.035156 C 153.414062 97.601562 157.617188 71.480469 145.265625 42.671875 C 138.539062 28.921875 129.710938 18.871094 118.773438 12.519531 C 105.097656 4.335938 91 0.179688 76.480469 0.0507812 M 132.632812 121.0625 L 132.109375 121.625 C 130.535156 123.324219 128.847656 125.046875 127.046875 126.785156 L 128.265625 125.808594 L 128.53125 125.585938 C 128.609375 125.53125 128.917969 125.242188 129.457031 124.707031 C 129.90625 124.25 130.402344 123.714844 130.9375 123.101562 L 131.765625 122.132812 L 132.632812 121.0625 M 24.441406 26.027344 L 23.15625 27.378906 C 8.554688 43.738281 2.046875 62.109375 3.632812 82.484375 C 1.285156 73.722656 1.410156 64.5625 4.003906 54.996094 C 6.507812 44.875 10.6875 36.054688 16.542969 28.535156 C 6.847656 39.65625 1.527344 53.894531 0.582031 71.253906 C 0.550781 74.386719 1.074219 78.308594 2.148438 83.023438 C 5.933594 96.441406 8.144531 103.566406 8.789062 104.390625 C 12.960938 113.882812 17.871094 121.253906 23.523438 126.507812 C 30.738281 133.257812 38.6875 138.324219 47.371094 141.707031 C 56.128906 145.34375 64.429688 147.089844 72.269531 146.945312 C 83.484375 146.703125 94.027344 145.03125 103.894531 141.929688 C 111.058594 139.375 118.769531 134.332031 127.03125 126.800781 C 118.484375 133.609375 111.136719 137.964844 104.984375 139.867188 C 93.46875 143.03125 82.84375 144.535156 73.101562 144.382812 C 66.992188 144.808594 58.292969 142.589844 47 137.734375 C 38.75 134.125 31.941406 129.675781 26.566406 124.375 C 22.269531 120.070312 19.007812 116.050781 16.773438 112.320312 C 23.425781 120.300781 33.074219 127.917969 45.722656 135.167969 C 51.804688 138.554688 57.855469 140.980469 63.882812 142.449219 C 65.433594 142.800781 66.308594 142.929688 66.511719 142.832031 C 66.621094 142.796875 66.609375 142.71875 66.480469 142.601562 C 66.746094 142.789062 67.144531 142.613281 67.675781 142.082031 C 68.125 141.539062 68.417969 141.003906 68.554688 140.480469 C 60.574219 140.292969 48.273438 134.847656 31.664062 124.148438 C 22.183594 117.074219 15.046875 108.773438 10.257812 99.25 C 5.722656 88.40625 4.742188 75.535156 7.324219 60.636719 C 9.21875 49.074219 14.925781 37.539062 24.441406 26.027344 " fill-opacity="1" fill-rule="nonzero"/></g><g clip-path="url(#fefbc4ca18)"><g clip-path="url(#d880fcbdd9)"><g transform="matrix(1, 0, 0, 1, 57, 0)"><g clip-path="url(#6a3b10559a)"><g clip-path="url(#56a94c4aac)"><g clip-path="url(#93c4c2afc6)"><path fill="#000000" d="M 0.425781 0 L 147.769531 0 L 147.769531 147.34375 L 0.425781 147.34375 Z M 0.425781 0 " fill-opacity="1" fill-rule="nonzero"/></g></g></g></g></g></g></svg>